# xmcd
#
# Track frame offsets:
#  150
#  9268
#  17991
#  28766
#  39121
#  47434
#  59064
#  68211
#  79258
#  88643
#  97020
#  105012
#
# Disc length: 1520 seconds
#
# Revision: 0
# Processed by: cddbd v1.5.1PL0 Copyright (c) Steve Scherf et al.
# Submitted via: Collectorz.com_Music_Collector 6.9
#
DISCID=8a05ee0c
DTITLE=Johnny Cash - The Sound Of Johnny Cash
DYEAR=1962
DGENRE=Traditional Country
TTITLE0=Lost On The Desert
TTITLE1=Accidentally On Purpose
TTITLE2=In The Jailhouse Now
TTITLE3=Mr. Lonesome
TTITLE4=You Won't Have Far To Go
TTITLE5=In Them Old Cottonfields Back Home
TTITLE6=Delia's Gone
TTITLE7=I Forgot More Than You'll Ever Know About Her
TTITLE8=You Remembered Me
TTITLE9=I'm Free From The Chain Gang Now
TTITLE10=Let Me Down Easy
TTITLE11=Sing It Pretty Sue
EXTD=
EXTT0=
EXTT1=
EXTT2=
EXTT3=
EXTT4=
EXTT5=
EXTT6=
EXTT7=
EXTT8=
EXTT9=
EXTT10=
EXTT11=
PLAYORDER=
